<?xml version="1.0" encoding="UTF-8"?>
<svg version="1.1" xmlns="http://www.w3.org/2000/svg" width="336" height="160">
<path d="M0 0 C110.88 0 221.76 0 336 0 C336 52.8 336 105.6 336 160 C225.12 160 114.24 160 0 160 C0 107.2 0 54.4 0 0 Z " fill="#000000" transform="translate(0,0)"/>
<path d="M0 0 C3.28833375 1.75368804 6.35281333 3.84630359 9.43359375 5.9375 C12.59240747 7.96585891 14.31291365 9.00682819 18.14453125 8.96875 C21.17997566 7.93894123 23.52372889 6.65084741 26.1875 4.875 C28.73046875 3.1796875 28.73046875 3.1796875 31 2 C34.75376152 3.25125384 35.24073289 4.5652404 37 8 C37 8.66 37 9.32 37 10 C34.71125827 11.33858524 32.41930344 12.67101014 30.125 14 C29.47402344 14.3815625 28.82304688 14.763125 28.15234375 15.15625 C23.2265625 18 23.2265625 18 21 18 C19.82256994 28.86600487 19.82256994 28.86600487 23.34082031 38.70117188 C27.58519436 42.20706959 33.00983606 45.14793915 38.60546875 44.87109375 C42.49871409 43.4547908 45.86129657 41.2433365 49.37890625 39.08203125 C52 38 52 38 54.21484375 38.44921875 C56.70276943 40.61050211 57.18258859 42.86658961 58 46 C57.00097656 46.28746094 56.00195312 46.57492188 54.97265625 46.87109375 C50.64935597 48.47103774 46.68672733 50.10499307 44 54 C43.41581228 58.06646448 43.82155585 62.04079762 44.125 66.125 C44.76312144 77.00560551 44.76312144 77.00560551 40.75537109 81.5390625 C34.17751236 86.62502433 24.49565148 93.41783562 15.8659668 92.76171875 C13.26409946 92.07019255 11.5486455 91.39062024 9.34375 89.8984375 C8.71339844 89.49109375 8.08304687 89.08375 7.43359375 88.6640625 C6.14091417 87.80227611 4.85184954 86.93504332 3.56640625 86.0625 C0.5343024 84.11550489 -1.3045092 83.0146612 -4.96484375 82.9375 C-9.75642501 84.61486178 -13.87459317 87.25984365 -18.16601562 89.9375 C-23.27083224 92.98196803 -23.27083224 92.98196803 -26.52734375 93.0625 C-30.80774781 91.22321105 -34.60311864 88.63708344 -38.47265625 86.0625 C-42.26633301 83.60815749 -42.26633301 83.60815749 -46.6484375 83.03125 C-50.29516121 84.53355478 -53.41360837 86.65578424 -56.6953125 88.8203125 C-57.83613281 89.40425781 -57.83613281 89.40425781 -59 90 C-62 89 -62 89 -63.75 86.625 C-65 84 -65 84 -64 81 C-63.113125 80.68804687 -62.22625 80.37609375 -61.3125 80.0546875 C-57.4669878 78.68517726 -54.22672514 77.51562658 -52 74 C-51.46307705 69.92601996 -51.7769386 65.90621054 -52 61.8125 C-52.19778265 57.35953767 -52.29787243 53.29284764 -51 49 C-47.38379559 45.37833854 -42.77548496 43.71139818 -38.14624023 41.69360352 C-35.37701644 40.32755945 -33.22148217 39.15204335 -31 37 C-29.41970991 31.89723125 -29.95510273 26.79503582 -30.23193359 21.52368164 C-30.50712826 13.6333151 -30.50712826 13.6333151 -27.50390625 9.8828125 C-24.07363022 7.84447507 -20.7312287 6.401765 -17 5 C-15.00678074 3.83624147 -13.02624972 2.65032479 -11.0625 1.4375 C-6.9152946 -1.03031156 -4.66310838 -1.39257636 0 0 Z " fill="#79EDAC" transform="translate(78,39)"/>
<path d="M0 0 C1.05960938 0.33773437 2.11921875 0.67546875 3.2109375 1.0234375 C6.96850447 2.62852166 9.24050595 3.95386083 12 7 C14.3168958 13.32851788 14.42062269 20.69587413 12 27 C8.4348343 31.57316297 2.69005837 34.89100866 -3 36 C-6.09375 35.34375 -6.09375 35.34375 -9 34 C-10.05960938 33.66226563 -11.11921875 33.32453125 -12.2109375 32.9765625 C-15.96850447 31.37147834 -18.24050595 30.04613917 -21 27 C-23.3168958 20.67148212 -23.42062269 13.30412587 -21 7 C-15.89492024 0.45153529 -7.76521463 -3.59036805 0 0 Z " fill="#010202" transform="translate(57,86)"/>
<path d="M0 0 C2.29296875 0.7265625 2.29296875 0.7265625 5 2 C6.02738281 2.33773437 7.05476563 2.67546875 8.11328125 3.0234375 C11.90073546 4.62350973 14.20266037 5.95457826 17 9 C19.3269896 15.32064586 19.41837322 22.70173251 17 29 C13.434518 33.57356871 7.69025483 36.89023003 2 38 C-1.09375 37.34765625 -1.09375 37.34765625 -4 36 C-5.58941406 35.47599609 -5.58941406 35.47599609 -7.2109375 34.94140625 C-10.91352486 33.32780954 -13.24451806 31.98260565 -16 29 C-18.18443648 23.01586473 -18.23977335 15.97181287 -16 10 C-12.6798404 5.79345149 -7.85915372 3.97875874 -3 2 C-2.01 1.34 -1.02 0.68 0 0 Z " fill="#020302" transform="translate(94,84)"/>
<path d="M0 0 C1.64935547 0.58394531 1.64935547 0.58394531 3.33203125 1.1796875 C10.4959447 4.6691807 10.4959447 4.6691807 13 8 C15.0723382 14.01019169 14.85037981 20.94983213 13 27 C10.4580254 30.3294054 7.85933732 31.54622935 4 33 C3.113125 33.639375 2.22625 34.27875 1.3125 34.9375 C-2.74451906 36.80153578 -6.35826347 35.22073398 -10.4296875 33.8203125 C-18.95897353 29.62336223 -18.95897353 29.62336223 -20.83105469 24.90576172 C-22.12574964 19.23763909 -22.25084268 13.43066283 -20 8 C-15.51111253 2.53375449 -7.01674037 -2.54131943 0 0 Z " fill="#010302" transform="translate(77,49)"/>
<path d="M0 0 C2.64 0 5.28 0 8 0 C8.33 0.66 8.66 1.32 9 2 C9.99 1.34 10.98 0.68 12 0 C15.29298055 -0.43492196 17.80334957 -0.69293789 20.75390625 1.015625 C23.45601856 3.17731485 24.8966607 4.68998211 26 8 C26.55367926 14.68674182 26.37412577 20.12652181 23 26 C19.71737969 28.18841354 18.68209102 28.24854665 14.875 28.1875 C13.98554688 28.18105469 13.09609375 28.17460938 12.1796875 28.16796875 C10 28 10 28 9 27 C8.67 30.63 8.34 34.26 8 38 C5.36 38 2.72 38 0 38 C0 25.46 0 12.92 0 0 Z " fill="#F6F6F6" transform="translate(161,77)"/>
<path d="M0 0 C3.31238458 1.25823796 3.94749404 1.92124107 6 5 C6.22705078 7.4519043 6.22705078 7.4519043 6.1953125 10.32421875 C6.18886719 11.35224609 6.18242187 12.38027344 6.17578125 13.43945312 C6.15902344 14.51130859 6.14226562 15.58316406 6.125 16.6875 C6.11597656 17.77095703 6.10695312 18.85441406 6.09765625 19.97070312 C6.0740734 22.6473571 6.04116126 25.32356797 6 28 C3.69 28 1.38 28 -1 28 C-1 27.34 -1 26.68 -1 26 C-1.55558594 26.32226562 -2.11117187 26.64453125 -2.68359375 26.9765625 C-5.30097577 28.13297749 -7.21070331 28.33198648 -10.0625 28.375 C-10.91972656 28.40335938 -11.77695313 28.43171875 -12.66015625 28.4609375 C-15 28 -15 28 -16.78125 26.2265625 C-18.65754944 22.79870776 -18.71914354 19.80677072 -18 16 C-15.79259319 13.03141843 -14.51402627 12.17134209 -11 11 C-9.43881572 10.93259135 -7.8749748 10.91485544 -6.3125 10.9375 C-5.10013672 10.95103516 -5.10013672 10.95103516 -3.86328125 10.96484375 C-2.94095703 10.98224609 -2.94095703 10.98224609 -2 11 C-2.33 9.68 -2.66 8.36 -3 7 C-4.65 7 -6.3 7 -8 7 C-8.33 7.99 -8.66 8.98 -9 10 C-11.64 10 -14.28 10 -17 10 C-17.375 7.8125 -17.375 7.8125 -17 5 C-12.26602426 -0.75753806 -7.17846837 -1.03014274 0 0 Z " fill="#F3F3F3" transform="translate(209,77)"/>
<path d="M0 0 C3.20289214 1.64066516 5.24892499 3.9758068 7.375 6.875 C8 9 8 9 8 16 C2.06 16 -3.88 16 -10 16 C-9.34 17.65 -8.68 19.3 -8 21 C-5.08365871 21.2502157 -5.08365871 21.2502157 -2 21 C-1.34 20.01 -0.68 19.02 0 18 C3.625 17.8125 3.625 17.8125 7 18 C6.8125 21.3125 6.8125 21.3125 6 25 C1.46053149 28.53883298 -2.54242651 28.55604236 -8.109375 28.42578125 C-12.50382895 27.77849006 -14.12973424 26.33571427 -17 23 C-18.74327965 17.77016104 -19.17345762 11.19204792 -17.24609375 5.94921875 C-13.18760192 -0.46478991 -7.01130232 -1.09482481 0 0 Z " fill="#F3F3F3" transform="translate(309,77)"/>
<path d="M0 0 C2.64 0 5.28 0 8 0 C8.33 6.6 8.66 13.2 9 20 C10.65 20 12.3 20 14 20 C15.54950268 18.45049732 15.21655193 16.90009406 15.31640625 14.74609375 C15.35830078 13.89208984 15.40019531 13.03808594 15.44335938 12.15820312 C15.48267578 11.26037109 15.52199219 10.36253906 15.5625 9.4375 C15.60568359 8.53580078 15.64886719 7.63410156 15.69335938 6.70507812 C15.79977984 4.47024844 15.90042481 2.23514514 16 0 C18.97 0 21.94 0 25 0 C25 9.24 25 18.48 25 28 C22.36 28 19.72 28 17 28 C16.67 27.34 16.34 26.68 16 26 C15.505 26.33 15.01 26.66 14.5 27 C11.08285001 28.36686 7.59197202 29.00322656 4 28 C1.21758031 25.7721185 0.12073722 23.98567694 -0.31445312 20.43286133 C-0.39421218 17.34143094 -0.34818119 14.27831934 -0.25 11.1875 C-0.22292969 9.57584961 -0.22292969 9.57584961 -0.1953125 7.93164062 C-0.14829392 5.28684535 -0.0825916 2.64388411 0 0 Z " fill="#E9E9E9" transform="translate(221,77)"/>
<path d="M0 0 C0.83265381 0.00523682 1.66530762 0.01047363 2.52319336 0.01586914 C3.42231445 0.0190918 4.32143555 0.02231445 5.24780273 0.02563477 C6.66609375 0.03820312 6.66609375 0.03820312 8.11303711 0.05102539 C9.06243164 0.05553711 10.01182617 0.06004883 10.98999023 0.06469727 C13.34356776 0.07652429 15.69702188 0.09300514 18.05053711 0.11352539 C18.55665737 4.58233727 18.29457225 7.28229889 15.64428711 10.85961914 C14.63015593 12.10423468 13.59832738 13.33461039 12.55053711 14.55102539 C11.76356445 15.50525391 11.76356445 15.50525391 10.96069336 16.47875977 C9.67246607 18.03634367 8.36351348 19.57674623 7.05053711 21.11352539 C11.01053711 21.44352539 14.97053711 21.77352539 19.05053711 22.11352539 C19.05053711 24.09352539 19.05053711 26.07352539 19.05053711 28.11352539 C11.46053711 28.11352539 3.87053711 28.11352539 -3.94946289 28.11352539 C-3.94946289 21.36352539 -3.94946289 21.36352539 -1.54321289 18.46508789 C-1.04692383 17.8527832 -0.55063477 17.24047852 -0.03930664 16.60961914 C0.4853418 15.9921582 1.00999023 15.37469727 1.55053711 14.73852539 C2.07518555 14.09786133 2.59983398 13.45719727 3.14038086 12.79711914 C4.43078386 11.22517367 5.73895098 9.66784013 7.05053711 8.11352539 C3.75053711 7.78352539 0.45053711 7.45352539 -2.94946289 7.11352539 C-2.99200645 5.11397793 -2.99027072 3.11310903 -2.94946289 1.11352539 C-1.94946289 0.11352539 -1.94946289 0.11352539 0 0 Z " fill="#F2F2F2" transform="translate(268.949462890625,76.886474609375)"/>
<path d="M0 0 C2.64 0 5.28 0 8 0 C8.33 10.23 8.66 20.46 9 31 C10.32 31.33 11.64 31.66 13 32 C13 33.98 13 35.96 13 38 C5.82663676 38.48632971 5.82663676 38.48632971 2.390625 36.46484375 C-0.31149081 33.67883873 -0.5686015 32.1805926 -0.56648254 28.36297607 C-0.54067612 27.63991272 -0.51486969 26.91684937 -0.48828125 26.171875 C-0.48120651 25.42286926 -0.47413177 24.67386353 -0.46684265 23.90216064 C-0.43892138 21.51707763 -0.37619535 19.13436944 -0.3125 16.75 C-0.28741382 15.13024232 -0.2646012 13.51044772 -0.24414062 11.890625 C-0.18910325 7.92617261 -0.10285322 3.96348847 0 0 Z " fill="#EFEFEF" transform="translate(251,67)"/>
<path d="M0 0 C2.375 0.3125 2.375 0.3125 5 1 C7.46934085 4.70401128 7.44928433 7.70587865 7 12 C6 14.5 6 14.5 5 16 C0.48745658 16.3658819 0.48745658 16.3658819 -1.64453125 14.765625 C-3.77756413 11.9871499 -3.40399792 9.55165114 -3.3046875 6.1640625 C-2.91999683 3.43177236 -1.98387698 1.90121544 0 0 Z " fill="#090909" transform="translate(172,83)"/>
<path d="M0 0 C1.4540625 0.0309375 1.4540625 0.0309375 2.9375 0.0625 C2.1875 4.8125 2.1875 4.8125 -0.0625 7.0625 C-2.6875 6.6875 -2.6875 6.6875 -5.0625 6.0625 C-3.98897059 0.08140756 -3.98897059 0.08140756 0 0 Z " fill="#0C0C0C" transform="translate(204.0625,92.9375)"/>
<path d="M0 0 C2.33944736 0.28730055 4.6739143 0.61936779 7 1 C7.33 2.32 7.66 3.64 8 5 C4.7 5 1.4 5 -2 5 C-1 1 -1 1 0 0 Z " fill="#222222" transform="translate(301,83)"/>
</svg>
