<?xml version="1.0" encoding="UTF-8"?> <svg xmlns="http://www.w3.org/2000/svg" xmlns:xlink="http://www.w3.org/1999/xlink" version="1.1" id="Layer_1" x="0px" y="0px" width="100%" viewBox="80 140 730 560" enable-background="new 0 0 1938 790" xml:space="preserve" style="background: transparent;"> <path fill="#3CF8AB" opacity="1.000000" stroke="none" d=" M701.484985,497.000183   C701.487854,530.664795 701.430908,563.829590 701.577026,596.993591   C701.593506,600.743225 700.637878,602.920776 697.221741,604.877808   C651.885864,630.849243 606.623901,656.950256 561.440857,683.186646   C558.045593,685.158264 555.721619,684.971497 552.445801,683.066040   C515.768372,661.732056 478.966583,640.611877 442.291138,619.274536   C439.121826,617.430725 436.922302,617.533508 433.810516,619.342773   C397.129059,640.669678 360.325439,661.786499 323.653381,683.129395   C320.320923,685.068787 317.994171,685.071838 314.660583,683.130920   C278.998505,662.367188 243.199738,641.838257 207.534470,621.079956   C204.351135,619.227173 202.150223,619.359863 199.049606,621.171082   C172.765045,636.524963 146.369492,651.688843 119.529228,667.185730   C111.061760,652.536682 102.693306,638.059021 94.081650,623.160522   C95.872971,622.069214 97.521973,621.016846 99.214828,620.040527   C122.998070,606.323547 146.753525,592.557617 170.615906,578.979614   C173.759216,577.190979 174.925522,575.261169 174.913452,571.585388   C174.770004,527.921936 174.885666,484.257599 174.710815,440.594360   C174.695099,436.668945 176.012054,434.759918 179.271332,432.892395   C216.087509,411.796997 252.789383,390.502075 289.608612,369.412048   C292.774658,367.598572 293.862030,365.644409 293.850220,362.018646   C293.714539,320.355042 293.806030,278.690704 293.688721,237.026993   C293.678741,233.484848 294.540924,231.424301 297.807983,229.550751   C343.131897,203.558884 388.375000,177.425690 433.562378,151.197006   C436.811981,149.310806 439.145660,149.142441 442.520996,151.107147   C479.479401,172.620026 516.603699,193.848099 553.529419,215.416367   C557.742615,217.877274 560.583740,217.686752 564.676941,215.279388   C590.062744,200.348999 615.638794,185.742172 641.156555,171.036270   C642.721985,170.134125 644.328552,169.303253 646.301880,168.229126   C654.779724,182.916779 663.136780,197.395157 671.636963,212.121567   C669.860229,213.223206 668.501282,214.118820 667.093933,214.930481   C640.282959,230.393280 613.488098,245.884476 586.619385,261.246338   C583.700806,262.915039 582.477356,264.729065 582.494812,268.242889   C582.650635,299.573456 582.628601,330.905304 582.522522,362.236298   C582.511230,365.573120 583.336243,367.574799 586.449341,369.348785   C614.785339,385.495880 643.046570,401.776093 671.195374,418.246979   C674.613464,420.246979 676.923523,419.986450 680.158508,418.099548   C706.892212,402.506012 733.733887,387.097656 760.543945,371.635132   C761.962097,370.817291 763.389832,370.016174 765.194519,368.990479   C773.693237,383.701080 782.053711,398.172272 790.632080,413.020782   C784.105408,416.811127 777.965881,420.397278 771.806885,423.949768   C749.753662,436.669891 727.731750,449.445251 705.594727,462.017700   C702.396545,463.834106 701.296021,465.892517 701.400024,469.500977   C701.659241,478.494049 701.485352,487.499634 701.484985,497.000183  M226.523514,464.669830   C226.283661,466.103424 225.836121,467.536774 225.834412,468.970642   C225.794678,502.283936 225.850220,535.597412 225.726303,568.910278   C225.714645,572.045532 226.866409,573.612305 229.454422,575.095703   C258.023376,591.471008 286.560944,607.901978 315.002563,624.496948   C318.205200,626.365540 320.422821,626.143188 323.526215,624.333801   C351.685791,607.915771 379.920807,591.625610 408.239288,575.483154   C411.540741,573.601318 412.827942,571.665649 412.805267,567.766357   C412.620117,535.953247 412.637299,504.138245 412.784088,472.324677   C412.800842,468.698029 411.718781,466.715088 408.535706,464.897644   C379.362213,448.240784 350.269196,431.442047 321.236115,414.541412   C318.286041,412.824066 316.143219,412.712708 313.129150,414.469391   C284.535492,431.134125 255.840378,447.624725 226.523514,464.669830  M640.268188,578.794495   C641.417053,578.121643 642.494995,577.250305 643.727051,576.810181   C649.203918,574.853333 650.651672,571.153687 650.595398,565.367126   C650.284546,533.371216 650.396851,501.370483 650.521606,469.372009   C650.534363,466.098755 649.500610,464.357361 646.651672,462.728882   C618.770142,446.791687 590.958679,430.731110 563.205872,414.570770   C560.286438,412.870758 558.133118,412.668152 555.087158,414.443268   C525.902893,431.451721 496.630432,448.309387 467.325226,465.109039   C464.735870,466.593445 463.581451,468.166595 463.593445,471.306519   C463.717560,503.804962 463.710297,536.304199 463.598175,568.802795   C463.587524,571.880798 464.609833,573.542480 467.251709,575.056335   C495.983124,591.519592 524.668213,608.064575 553.280823,624.733276   C556.148926,626.404114 558.206787,626.229431 560.970032,624.619263   C587.136780,609.371460 613.383606,594.261108 640.268188,578.794495  M531.613525,316.500122   C531.614441,299.674744 531.537964,282.848694 531.684631,266.024597   C531.712341,262.842255 530.895386,260.954346 527.976990,259.287231   C499.091858,242.786865 470.286682,226.145996 441.522949,209.434616   C439.053131,207.999680 437.264160,207.897476 434.734528,209.369614   C405.839844,226.184967 376.843231,242.825363 347.982513,259.698334   C346.409241,260.618134 344.884094,263.177612 344.873871,264.982544   C344.688293,297.799042 344.688141,330.617157 344.874420,363.433655   C344.884766,365.255280 346.401337,367.843964 347.981201,368.766022   C376.998535,385.701569 406.112152,402.472992 435.302917,419.108002   C436.751007,419.933197 439.493958,419.918884 440.947296,419.090607   C470.137909,402.454376 499.208527,385.607666 528.371216,368.922028   C530.914307,367.466949 531.698669,365.800537 531.674744,362.977753   C531.546143,347.819489 531.613586,332.659515 531.613525,316.500122  z"/> </svg>
