<?xml version="1.0" encoding="UTF-8"?> <svg xmlns="http://www.w3.org/2000/svg" xmlns:xlink="http://www.w3.org/1999/xlink" version="1.1" id="Layer_1" x="0px" y="0px" width="100%" viewBox="0 0 1938 790" enable-background="new 0 0 1938 790" xml:space="preserve" style="background: transparent;"> <path fill="#3CF8AB" opacity="1.000000" stroke="none" d=" M701.484985,497.000183   C701.487854,530.664795 701.430908,563.829590 701.577026,596.993591   C701.593506,600.743225 700.637878,602.920776 697.221741,604.877808   C651.885864,630.849243 606.623901,656.950256 561.440857,683.186646   C558.045593,685.158264 555.721619,684.971497 552.445801,683.066040   C515.768372,661.732056 478.966583,640.611877 442.291138,619.274536   C439.121826,617.430725 436.922302,617.533508 433.810516,619.342773   C397.129059,640.669678 360.325439,661.786499 323.653381,683.129395   C320.320923,685.068787 317.994171,685.071838 314.660583,683.130920   C278.998505,662.367188 243.199738,641.838257 207.534470,621.079956   C204.351135,619.227173 202.150223,619.359863 199.049606,621.171082   C172.765045,636.524963 146.369492,651.688843 119.529228,667.185730   C111.061760,652.536682 102.693306,638.059021 94.081650,623.160522   C95.872971,622.069214 97.521973,621.016846 99.214828,620.040527   C122.998070,606.323547 146.753525,592.557617 170.615906,578.979614   C173.759216,577.190979 174.925522,575.261169 174.913452,571.585388   C174.770004,527.921936 174.885666,484.257599 174.710815,440.594360   C174.695099,436.668945 176.012054,434.759918 179.271332,432.892395   C216.087509,411.796997 252.789383,390.502075 289.608612,369.412048   C292.774658,367.598572 293.862030,365.644409 293.850220,362.018646   C293.714539,320.355042 293.806030,278.690704 293.688721,237.026993   C293.678741,233.484848 294.540924,231.424301 297.807983,229.550751   C343.131897,203.558884 388.375000,177.425690 433.562378,151.197006   C436.811981,149.310806 439.145660,149.142441 442.520996,151.107147   C479.479401,172.620026 516.603699,193.848099 553.529419,215.416367   C557.742615,217.877274 560.583740,217.686752 564.676941,215.279388   C590.062744,200.348999 615.638794,185.742172 641.156555,171.036270   C642.721985,170.134125 644.328552,169.303253 646.301880,168.229126   C654.779724,182.916779 663.136780,197.395157 671.636963,212.121567   C669.860229,213.223206 668.501282,214.118820 667.093933,214.930481   C640.282959,230.393280 613.488098,245.884476 586.619385,261.246338   C583.700806,262.915039 582.477356,264.729065 582.494812,268.242889   C582.650635,299.573456 582.628601,330.905304 582.522522,362.236298   C582.511230,365.573120 583.336243,367.574799 586.449341,369.348785   C614.785339,385.495880 643.046570,401.776093 671.195374,418.246979   C674.613464,420.246979 676.923523,419.986450 680.158508,418.099548   C706.892212,402.506012 733.733887,387.097656 760.543945,371.635132   C761.962097,370.817291 763.389832,370.016174 765.194519,368.990479   C773.693237,383.701080 782.053711,398.172272 790.632080,413.020782   C784.105408,416.811127 777.965881,420.397278 771.806885,423.949768   C749.753662,436.669891 727.731750,449.445251 705.594727,462.017700   C702.396545,463.834106 701.296021,465.892517 701.400024,469.500977   C701.659241,478.494049 701.485352,487.499634 701.484985,497.000183  M226.523514,464.669830   C226.283661,466.103424 225.836121,467.536774 225.834412,468.970642   C225.794678,502.283936 225.850220,535.597412 225.726303,568.910278   C225.714645,572.045532 226.866409,573.612305 229.454422,575.095703   C258.023376,591.471008 286.560944,607.901978 315.002563,624.496948   C318.205200,626.365540 320.422821,626.143188 323.526215,624.333801   C351.685791,607.915771 379.920807,591.625610 408.239288,575.483154   C411.540741,573.601318 412.827942,571.665649 412.805267,567.766357   C412.620117,535.953247 412.637299,504.138245 412.784088,472.324677   C412.800842,468.698029 411.718781,466.715088 408.535706,464.897644   C379.362213,448.240784 350.269196,431.442047 321.236115,414.541412   C318.286041,412.824066 316.143219,412.712708 313.129150,414.469391   C284.535492,431.134125 255.840378,447.624725 226.523514,464.669830  M640.268188,578.794495   C641.417053,578.121643 642.494995,577.250305 643.727051,576.810181   C649.203918,574.853333 650.651672,571.153687 650.595398,565.367126   C650.284546,533.371216 650.396851,501.370483 650.521606,469.372009   C650.534363,466.098755 649.500610,464.357361 646.651672,462.728882   C618.770142,446.791687 590.958679,430.731110 563.205872,414.570770   C560.286438,412.870758 558.133118,412.668152 555.087158,414.443268   C525.902893,431.451721 496.630432,448.309387 467.325226,465.109039   C464.735870,466.593445 463.581451,468.166595 463.593445,471.306519   C463.717560,503.804962 463.710297,536.304199 463.598175,568.802795   C463.587524,571.880798 464.609833,573.542480 467.251709,575.056335   C495.983124,591.519592 524.668213,608.064575 553.280823,624.733276   C556.148926,626.404114 558.206787,626.229431 560.970032,624.619263   C587.136780,609.371460 613.383606,594.261108 640.268188,578.794495  M531.613525,316.500122   C531.614441,299.674744 531.537964,282.848694 531.684631,266.024597   C531.712341,262.842255 530.895386,260.954346 527.976990,259.287231   C499.091858,242.786865 470.286682,226.145996 441.522949,209.434616   C439.053131,207.999680 437.264160,207.897476 434.734528,209.369614   C405.839844,226.184967 376.843231,242.825363 347.982513,259.698334   C346.409241,260.618134 344.884094,263.177612 344.873871,264.982544   C344.688293,297.799042 344.688141,330.617157 344.874420,363.433655   C344.884766,365.255280 346.401337,367.843964 347.981201,368.766022   C376.998535,385.701569 406.112152,402.472992 435.302917,419.108002   C436.751007,419.933197 439.493958,419.918884 440.947296,419.090607   C470.137909,402.454376 499.208527,385.607666 528.371216,368.922028   C530.914307,367.466949 531.698669,365.800537 531.674744,362.977753   C531.546143,347.819489 531.613586,332.659515 531.613525,316.500122  z"/> <path fill="#FEFEFE" opacity="1.000000" stroke="none" d=" M1075.855225,484.722290   C1071.401245,498.468536 1065.000732,510.373657 1053.484741,519.169312   C1035.519897,532.890442 998.142029,536.700073 977.948792,510.412384   C977.278198,509.539398 976.716431,508.582855 976.104004,507.665192   C975.754517,507.886749 975.404968,508.108307 975.055481,508.329865   C975.055481,533.046814 975.055481,557.763794 975.055481,582.764709   C961.442200,582.764709 948.215454,582.764709 934.753479,582.764709   C934.753479,513.225220 934.753479,443.804688 934.753479,374.155762   C948.381531,374.155762 961.826538,374.155762 975.960632,374.155762   C975.960632,380.951355 975.960632,387.794403 975.960632,395.956665   C979.825378,391.630646 982.597168,388.244110 985.660095,385.145325   C1006.767090,363.791168 1052.470825,366.090546 1069.539062,399.889069   C1079.761475,420.131287 1080.909302,441.718781 1079.302612,463.677307   C1078.795532,470.604706 1077.091309,477.444489 1075.855225,484.722290  M1036.874268,445.635803   C1035.859619,438.577301 1035.390015,431.384247 1033.689697,424.494965   C1031.651611,416.237061 1027.489258,409.089203 1019.046814,405.490509   C1003.591187,398.902557 979.481323,412.271973 976.818848,428.936676   C976.714844,429.587860 976.760986,430.265320 976.760864,430.930511   C976.758118,444.246613 976.719849,457.562958 976.810364,470.878448   C976.821167,472.465210 977.080322,474.412262 978.004272,475.569580   C982.515808,481.220306 986.473938,487.759674 992.129333,491.965820   C1008.550598,504.178894 1029.205322,496.604370 1033.682983,476.727631   C1035.887817,466.940186 1035.904053,456.659729 1036.874268,445.635803  z"/> <path fill="#FDFDFD" opacity="1.000000" stroke="none" d=" M1762.977173,526.992554   C1743.808228,531.237976 1725.098633,531.207764 1706.902588,524.795593   C1687.325928,517.896912 1673.997437,504.047302 1667.614990,484.424957   C1659.821899,460.465149 1659.625244,436.225494 1669.039917,412.548584   C1677.558105,391.125671 1693.717529,378.276062 1716.146240,373.628082   C1732.552246,370.228149 1749.040283,370.389771 1764.829468,376.569946   C1789.071655,386.058807 1801.280762,405.085175 1804.853516,430.052429   C1806.186157,439.365204 1806.089966,448.882446 1806.675415,458.816772   C1772.115723,458.816772 1738.536987,458.816772 1703.608521,458.816772   C1705.427246,466.380890 1706.345459,473.492889 1708.851929,479.992340   C1715.715942,497.790527 1737.861328,504.918488 1754.310303,495.181732   C1761.472412,490.942169 1764.066650,484.255798 1764.482544,476.210968   C1778.367554,476.210968 1791.951782,476.210968 1805.524414,476.210968   C1807.031860,494.196655 1795.468506,513.347351 1777.872925,521.643799   C1773.242798,523.826965 1768.229004,525.196167 1762.977173,526.992554  M1742.500000,432.010437   C1749.776123,432.010437 1757.052246,432.010437 1764.314697,432.010437   C1764.509399,412.384125 1752.007080,400.057831 1732.764648,400.928955   C1717.462280,401.621674 1705.269409,414.868591 1705.169800,432.010437   C1717.278931,432.010437 1729.389404,432.010437 1742.500000,432.010437  z"/> <path fill="#FDFDFD" opacity="1.000000" stroke="none" d=" M1195.675537,413.721771   C1191.113647,402.695892 1182.353760,398.292603 1169.029053,400.008392   C1156.653931,401.601929 1150.675293,408.574280 1148.708252,423.867554   C1135.822876,423.867554 1122.913818,423.867554 1110.015625,423.867554   C1108.947388,397.528748 1121.559326,380.734375 1147.707642,374.494110   C1165.614990,370.220581 1183.806519,370.392273 1201.699951,374.534546   C1223.462158,379.572479 1236.114868,393.635162 1236.673706,416.062622   C1237.589966,452.838989 1236.921631,489.654816 1236.921631,526.728271   C1224.279419,526.728271 1211.687744,526.728271 1198.710571,526.728271   C1198.346069,521.022034 1197.979004,515.272644 1197.611816,509.523193   C1197.144531,509.183014 1196.677246,508.842834 1196.209961,508.502655   C1195.474487,509.733765 1194.916504,511.123932 1193.977051,512.172302   C1176.800049,531.342224 1142.805664,533.944336 1124.144165,524.615906   C1107.633911,516.362854 1099.132202,498.141632 1101.280518,478.491974   C1103.878052,454.733490 1118.425293,443.623169 1140.169434,439.307434   C1157.392822,435.888977 1175.138916,435.099701 1192.656494,433.175598   C1193.946289,433.033936 1195.265381,433.157074 1197.537842,433.157074   C1196.933228,426.509460 1196.369141,420.307800 1195.675537,413.721771  M1193.897583,484.251007   C1197.858765,480.930389 1196.680054,476.392548 1196.634399,472.193817   C1196.579346,467.141693 1198.148682,459.919312 1195.525757,457.625000   C1192.634399,455.095642 1185.746948,456.707489 1180.666138,457.198181   C1170.612549,458.169128 1160.393677,458.815247 1151.672974,464.925720   C1144.221436,470.146759 1141.062256,480.751434 1144.264282,489.877808   C1146.796631,497.095490 1154.173218,501.016144 1163.781616,500.436340   C1176.044434,499.696411 1185.296509,493.344482 1193.897583,484.251007  z"/> <path fill="#FEFEFE" opacity="1.000000" stroke="none" d=" M1405.170288,462.000092   C1405.170288,483.806702 1405.170288,505.113281 1405.170288,526.710571   C1391.685059,526.710571 1378.428833,526.710571 1364.367554,526.710571   C1364.367554,519.869690 1364.367554,512.980591 1364.367554,506.798523   C1356.192993,512.465881 1348.758789,518.978882 1340.202759,523.238403   C1326.820923,529.900391 1312.249512,530.698181 1297.884888,526.341675   C1281.415283,521.346619 1273.468506,508.590790 1270.282837,492.700073   C1268.694214,484.775940 1268.216797,476.527130 1268.151245,468.417786   C1267.911621,438.753143 1268.056519,409.085419 1268.056519,379.418854   C1268.056519,377.778198 1268.056519,376.137573 1268.056519,374.217529   C1282.071167,374.217529 1295.796387,374.217529 1309.979980,374.217529   C1309.979980,375.894287 1309.979980,377.511871 1309.979980,379.129456   C1309.979980,407.962677 1309.891235,436.796417 1310.062988,465.628632   C1310.093384,470.734802 1310.662842,475.976074 1311.940674,480.906799   C1314.354004,490.218536 1321.723511,494.959167 1331.321045,494.684082   C1342.234497,494.371277 1350.456421,489.035583 1357.993164,481.730377   C1361.869019,477.973633 1363.344360,474.023743 1363.297852,468.598816   C1363.042969,438.934570 1363.175293,409.267029 1363.174561,379.600616   C1363.174561,377.955597 1363.174438,376.310547 1363.174438,374.289856   C1377.138306,374.289856 1390.865234,374.289856 1405.170288,374.289856   C1405.170288,403.332428 1405.170288,432.416229 1405.170288,462.000092  z"/> <path fill="#FDFDFD" opacity="1.000000" stroke="none" d=" M1639.882080,494.287262   C1642.344971,494.287262 1644.323242,494.287262 1646.649902,494.287262   C1646.649902,505.101196 1646.649902,515.673950 1646.649902,526.625732   C1605.174072,526.625732 1563.464722,526.625732 1521.073975,526.625732   C1521.073975,516.932556 1520.922729,507.013763 1521.221558,497.108551   C1521.271851,495.440369 1523.164185,493.750793 1524.377319,492.206055   C1545.554810,465.237457 1566.761719,438.292053 1587.951050,411.332611   C1589.042236,409.944183 1590.031128,408.475128 1591.587280,406.325989   C1569.700073,406.325989 1548.643677,406.325989 1527.422119,406.325989   C1527.422119,395.387512 1527.422119,384.962860 1527.422119,374.218506   C1565.501343,374.218506 1603.395386,374.218506 1641.875244,374.218506   C1641.875244,383.622833 1641.981445,393.052277 1641.759888,402.474030   C1641.726929,403.871521 1640.263306,405.322876 1639.267212,406.597351   C1617.744263,434.139099 1596.192993,461.658569 1574.650757,489.185211   C1573.566406,490.570892 1572.513672,491.981293 1570.753906,494.287262   C1594.299805,494.287262 1616.848633,494.287262 1639.882080,494.287262  z"/> <path fill="#FEFEFE" opacity="1.000000" stroke="none" d=" M1439.059082,422.000000   C1439.059082,386.533569 1439.059082,351.567108 1439.059082,316.323242   C1453.092651,316.323242 1466.815674,316.323242 1480.979858,316.323242   C1480.979858,318.231232 1480.979736,320.018036 1480.979736,321.804840   C1480.979858,370.467499 1480.958496,419.130157 1481.017578,467.792755   C1481.022827,472.104706 1481.236450,476.466034 1481.906494,480.717285   C1483.350708,489.882935 1487.273560,493.326202 1496.577271,493.876343   C1500.533203,494.110291 1504.514404,493.915436 1508.764038,493.915436   C1508.764038,505.036346 1508.764038,515.768188 1508.764038,526.884216   C1494.916138,527.196045 1481.130981,527.403687 1467.733643,523.450012   C1449.238159,517.991699 1441.452515,506.565735 1440.266479,487.909271   C1438.884399,466.168427 1439.378906,444.308350 1439.059082,422.000000  z"/> </svg>
